<svg xmlns="http://www.w3.org/2000/svg" viewBox="0 0 24 24" fill="currentColor">
  <path fill-rule="evenodd" d="M6 6a2 2 0 0 1 2-2h8a2 2 0 0 1 2 2v12a2 2 0 0 1-2 2H8a2 2 0 0 1-2-2V6Zm3.49 11.598.001-.005.004-.02a12.094 12.094 0 0 1 .078-.35c.053-.228.129-.53.219-.83.07-.234.146-.455.222-.633.094.189.193.424.3.681l.03.074c.117.283.243.587.366.825.067.128.147.265.24.375.074.087.26.285.55.285.326 0 .54-.196.658-.337.106-.128.193-.287.253-.397l.014-.024a5.22 5.22 0 0 1 .074-.131c.021.035.045.078.073.13l.013.023c.06.11.148.27.255.4.12.142.334.336.66.336.256 0 .507-.13.67-.224.189-.11.383-.25.551-.382a9.726 9.726 0 0 0 .57-.482l.047-.044.004-.003a.5.5 0 0 0-.684-.73l-.002.002-.008.008-.032.029a9.215 9.215 0 0 1-.51.432 4.155 4.155 0 0 1-.44.306c-.04.023-.073.04-.099.053a3.71 3.71 0 0 1-.118-.206l-.006-.01a2.403 2.403 0 0 0-.275-.42A.882.882 0 0 0 12.5 16c-.32 0-.539.18-.668.327-.12.138-.214.307-.278.422l-.01.02c-.087-.18-.18-.403-.281-.649l-.025-.061a9.352 9.352 0 0 0-.417-.911 1.945 1.945 0 0 0-.266-.383c-.094-.1-.282-.265-.555-.265-.276 0-.464.168-.558.273-.105.117-.189.26-.256.394a6.172 6.172 0 0 0-.352.94 15.225 15.225 0 0 0-.323 1.286v.006l-.001.002a.5.5 0 0 0 .98.197ZM9 6.54a.5.5 0 0 0 0 1h6a.5.5 0 0 0 0-1H9Zm-.5 2.71a.5.5 0 0 1 .5-.5h6a.5.5 0 0 1 0 1H9a.5.5 0 0 1-.5-.5ZM9 11a.5.5 0 0 0 0 1h6a.5.5 0 0 0 0-1H9Z" clip-rule="evenodd"/>
</svg>
